<svg width="24" height="24" viewBox="0 0 24 24" xmlns="http://www.w3.org/2000/svg">
<path d="M12.0386 2.72665C14.7921 2.72665 17.5456 2.72756 20.2991 2.72559C20.6746 2.72532 21.0451 2.75399 21.3917 2.90666C22.3227 3.31687 22.8581 4.02561 22.9785 5.03622C22.9974 5.19494 22.999 5.35638 22.9991 5.51656C23.0001 9.89379 23.0003 14.271 22.9995 18.6482C22.9994 19.3802 22.7597 20.0195 22.233 20.5384C21.756 21.0084 21.1738 21.2493 20.5065 21.2648C19.8695 21.2796 19.2319 21.2732 18.5946 21.2733C13.6283 21.2738 8.66195 21.2731 3.69563 21.2743C3.01341 21.2745 2.3937 21.102 1.87658 20.6395C1.37028 20.1866 1.07728 19.6239 1.02035 18.9452C1.00726 18.7892 1.00086 18.6321 1.00082 18.4755C0.999825 14.0733 0.999939 9.6711 1.00012 5.26892C1.00017 4.02849 1.91024 2.96149 3.13692 2.7743C3.36214 2.73993 3.59288 2.7288 3.8211 2.72855C6.56027 2.72554 9.29944 2.7266 12.0386 2.72665ZM2.69932 6.95395C2.69659 6.99059 2.69273 7.0183 2.69273 7.04601C2.69254 10.9093 2.6926 14.7725 2.69291 18.6358C2.69292 18.7 2.69359 18.7643 2.69825 18.8283C2.72696 19.2229 3.05651 19.5572 3.4496 19.5803C3.64221 19.5916 3.83591 19.5856 4.02912 19.5856C8.81611 19.5858 13.6031 19.5855 18.3901 19.5859C19.0489 19.586 19.7077 19.5943 20.3663 19.5876C20.5204 19.5861 20.6879 19.5695 20.825 19.5071C21.175 19.3479 21.3077 19.0495 21.3075 18.6728C21.3048 14.8059 21.3055 10.9391 21.3054 7.07223C21.3054 7.03437 21.3054 6.99651 21.3054 6.95395H2.69932Z" />
<path d="M14.8791 15.1981C14.8404 15.3581 14.8103 15.4938 14.7727 15.6275C14.7657 15.6523 14.7318 15.6777 14.7043 15.6884C14.179 15.894 13.6508 16.0883 13.0719 16.0975C12.6376 16.1044 12.2435 16.0092 11.9296 15.6996C11.7214 15.4942 11.6311 15.2314 11.5559 14.9634C11.4881 14.7214 11.4274 14.4775 11.3583 14.214C11.3273 14.2518 11.303 14.2781 11.2824 14.3069C11.0064 14.6928 10.7353 15.082 10.4534 15.4639C10.3162 15.6498 10.1531 15.8179 9.94228 15.9295C9.64295 16.088 9.32698 16.1536 9.00444 16.0049C8.63291 15.8338 8.47783 15.4643 8.57824 15.0345C8.7001 14.5128 9.20528 14.187 9.79212 14.2708C10.027 14.3043 10.257 14.3736 10.4866 14.4359C10.5674 14.4579 10.6226 14.4518 10.6771 14.3886C10.8534 14.1843 11.0343 13.9836 11.2097 13.7785C11.2286 13.7565 11.2362 13.7118 11.2277 13.6835C11.0472 13.083 10.8786 12.4787 10.6759 11.8851C10.522 11.4345 10.226 11.2697 9.73728 11.3166C9.5872 11.331 9.44009 11.3761 9.29229 11.4099C9.24043 11.4218 9.19057 11.4418 9.11667 11.4655C9.15692 11.3079 9.1907 11.1667 9.231 11.0272C9.23727 11.0055 9.2706 10.9858 9.29595 10.9753C9.86276 10.7408 10.4426 10.5555 11.0693 10.5606C11.6934 10.5656 12.1627 10.8861 12.3598 11.4579C12.4623 11.7552 12.5366 12.0616 12.6277 12.3777C12.6578 12.3421 12.6929 12.3061 12.7216 12.2658C12.9822 11.8993 13.2361 11.5283 13.5036 11.1665C13.6644 10.9491 13.8596 10.7593 14.1023 10.6229C14.491 10.4044 14.9831 10.4582 15.2485 10.763C15.5032 11.0555 15.4923 11.3942 15.351 11.7238C15.1981 12.0804 14.8992 12.2682 14.5005 12.3054C14.1557 12.3376 13.831 12.247 13.5092 12.1476C13.4273 12.1223 13.3758 12.1337 13.3223 12.1979C13.1474 12.4078 12.9658 12.6126 12.7922 12.8235C12.7681 12.8528 12.7586 12.9098 12.7693 12.9466C12.9442 13.5485 13.1223 14.1496 13.3033 14.7499C13.3263 14.8263 13.3661 14.8989 13.4047 14.9699C13.5399 15.2183 13.7552 15.3387 14.0459 15.3522C14.3277 15.3652 14.5919 15.2998 14.8791 15.1981Z" />
<path d="M16.548 9.41239C16.879 9.41239 17.1997 9.41087 17.5203 9.41495C17.5495 9.41532 17.5881 9.44525 17.6057 9.47228C17.9877 10.0567 18.2825 10.6816 18.4639 11.3574C18.6972 12.2261 18.7429 13.1044 18.6208 13.9969C18.5045 14.8462 18.2242 15.6317 17.7823 16.363C17.635 16.6066 17.4949 16.8545 17.3467 17.0975C17.3256 17.1322 17.2779 17.1721 17.2418 17.1728C16.939 17.1788 16.6361 17.1763 16.314 17.1763C16.333 17.1338 16.3466 17.103 16.3605 17.0723C16.5767 16.5975 16.8014 16.1265 17.0069 15.6471C17.2556 15.0669 17.3545 14.4505 17.3996 13.825C17.4443 13.204 17.4392 12.5833 17.365 11.9641C17.2802 11.2555 17.0954 10.5757 16.7805 9.93326C16.7099 9.78915 16.6438 9.64281 16.5766 9.49702C16.565 9.4718 16.5586 9.44418 16.548 9.41239Z" />
<path d="M7.41685 9.41256C6.19109 12.0495 6.24872 14.6293 7.68651 17.1768C7.42429 17.1768 7.18737 17.1768 6.95045 17.1768C6.68777 17.1769 6.68664 17.1775 6.56094 16.9507C6.32112 16.5178 6.06449 16.0932 5.8481 15.6486C5.53845 15.0124 5.41132 14.323 5.34328 13.6212C5.22893 12.4417 5.4529 11.3236 5.94855 10.2586C6.07411 9.98883 6.23762 9.73692 6.38858 9.47975C6.4072 9.44802 6.45583 9.41603 6.49106 9.41545C6.79747 9.41043 7.104 9.41256 7.41685 9.41256Z" />
</svg>
