<svg width="24" height="24" viewBox="0 0 24 24" fill="none" xmlns="http://www.w3.org/2000/svg">
<path d="M12 24C9.62663 24 7.30655 23.2962 5.33316 21.9776C3.35977 20.6591 1.8217 18.7849 0.913451 16.5922C0.00519941 14.3995 -0.232441 11.9867 0.230582 9.65892C0.693605 7.33115 1.83649 5.19295 3.51472 3.51472C5.19295 1.83649 7.33115 0.693605 9.65892 0.230582C11.9867 -0.232441 14.3995 0.00519941 16.5922 0.913451C18.7849 1.8217 20.6591 3.35977 21.9776 5.33316C23.2962 7.30655 24 9.62663 24 12C24 15.1826 22.7357 18.2348 20.4853 20.4853C18.2348 22.7357 15.1826 24 12 24Z" fill="#999999"/>
<path d="M10.1737 21.387C10.1491 21.3869 10.1249 21.3809 10.103 21.3696C10.0811 21.3583 10.0623 21.3419 10.048 21.3219C10.0292 21.3036 10.0142 21.2818 10.0041 21.2576C9.9939 21.2335 9.9887 21.2075 9.98877 21.1813V17.6405C9.98826 17.6143 9.99326 17.5882 10.0035 17.564C10.0137 17.5398 10.0288 17.5179 10.048 17.5C10.0623 17.4799 10.0811 17.4636 10.103 17.4522C10.1249 17.4409 10.1491 17.435 10.1737 17.4349H13.3742C13.3988 17.435 13.4231 17.4409 13.4449 17.4522C13.4668 17.4636 13.4857 17.4799 13.5 17.5C13.5181 17.5185 13.5321 17.5405 13.5413 17.5647C13.5505 17.5889 13.5545 17.6147 13.5533 17.6405V21.1813C13.5533 21.2075 13.5481 21.2335 13.5379 21.2576C13.5278 21.2818 13.5129 21.3036 13.4941 21.3219C13.4798 21.3419 13.4609 21.3583 13.439 21.3696C13.4172 21.3809 13.3929 21.3869 13.3683 21.387H10.1737ZM10.2211 15.7125C10.1959 15.7115 10.1714 15.704 10.1499 15.6908C10.1284 15.6776 10.1106 15.6591 10.0983 15.6371C10.0376 15.5267 10.0046 15.4034 10.0021 15.2775V14.6117C10.0111 13.8565 10.2862 13.1288 10.7789 12.5564C11.2581 11.9296 11.8694 11.4159 12.5693 11.0516C13.0434 10.8361 13.465 10.52 13.8048 10.1254C14.0982 9.72875 14.247 9.24367 14.2265 8.75076C14.2202 8.47085 14.1467 8.19656 14.0119 7.9511C13.8772 7.70565 13.6854 7.49626 13.4526 7.34065C12.986 6.98317 12.4128 6.79296 11.825 6.80058C11.2429 6.78199 10.6709 6.95567 10.1974 7.29478H10.1885C9.62111 7.82471 9.11937 8.42083 8.69407 9.07037C8.626 9.16506 8.58161 9.16506 8.5461 9.16506C8.51165 9.16314 8.47817 9.15299 8.44844 9.13547C8.42212 9.11958 8.39736 9.10125 8.37446 9.08072L6.23488 7.27998C6.21363 7.26564 6.19557 7.24707 6.18182 7.22543C6.16807 7.20379 6.15894 7.17954 6.15498 7.15421C6.14616 7.10311 6.15615 7.05055 6.18309 7.00625C6.693 5.87633 7.52246 4.92035 8.56918 4.25619C9.6159 3.59203 10.8341 3.24874 12.0736 3.26864C12.7683 3.2762 13.4545 3.42259 14.0918 3.69922C14.768 3.98438 15.3931 4.37768 15.9429 4.86371C16.4959 5.36004 16.9459 5.96034 17.2672 6.63042C17.5954 7.30035 17.7717 8.03445 17.7836 8.78035C17.7873 9.24395 17.7229 9.70558 17.5927 10.1505C17.494 10.5116 17.3519 10.8594 17.1695 11.1863C16.9836 11.4806 16.7581 11.748 16.4992 11.9808C16.2727 12.2019 16.0298 12.4057 15.7727 12.5905C15.5833 12.7207 15.317 12.8864 14.9722 13.1054C14.5444 13.3785 14.1891 13.7512 13.9365 14.1915C13.694 14.5481 13.5482 14.9616 13.5133 15.3914C13.5093 15.4781 13.4794 15.5616 13.4275 15.6312C13.3727 15.7125 13.3446 15.7125 13.3313 15.7125H10.2211Z" fill="white"/>
</svg>
